<?xml version="1.0" encoding="utf-8"?>
<!-- Generator: Adobe Illustrator 23.0.0, SVG Export Plug-In . SVG Version: 6.00 Build 0)  -->
<svg version="1.1" id="图层_1" xmlns="http://www.w3.org/2000/svg" xmlns:xlink="http://www.w3.org/1999/xlink" x="0px" y="0px"
	 viewBox="0 0 16 16" style="enable-background:new 0 0 16 16;" xml:space="preserve">
<style type="text/css">
	.st0{fill-rule:evenodd;clip-rule:evenodd;fill:#595959;}
</style>
<title>icons/light/normal备份</title>
<g>
	<path id="矩形" class="st0" d="M13.5,7L13.5,7C13.8,7,14,7.2,14,7.5v4c0,0.3-0.2,0.5-0.5,0.5l0,0c-0.3,0-0.5-0.2-0.5-0.5v-4
		C13,7.2,13.2,7,13.5,7z"/>
	<path id="形状结合" class="st0" d="M5.5,3.1c0.2,0,0.4,0.1,0.5,0.3l0,0l2.8,7.7c0,0,0,0,0,0c0.1,0.3,0,0.6-0.3,0.7
		c-0.3,0.1-0.6,0-0.7-0.3l0,0L7,9L4.1,9c0,0,0,0,0,0l-0.9,2.5c-0.1,0.3-0.4,0.4-0.7,0.3c-0.2-0.1-0.4-0.3-0.3-0.6l0-0.1c0,0,0,0,0,0
		L5,3.5C5.1,3.3,5.3,3.1,5.5,3.1L5.5,3.1z M5.5,5L4.4,8h2.2L5.5,5z M11.5,7C12.9,7,14,8.1,14,9.5S12.9,12,11.5,12S9,10.9,9,9.5
		S10.1,7,11.5,7z M11.5,8C10.7,8,10,8.7,10,9.5s0.7,1.5,1.5,1.5S13,10.3,13,9.5S12.3,8,11.5,8z"/>
</g>
</svg>
