<?xml version="1.0" encoding="utf-8"?>
<!-- Generator: Adobe Illustrator 23.0.0, SVG Export Plug-In . SVG Version: 6.00 Build 0)  -->
<svg version="1.1" id="图层_1" xmlns="http://www.w3.org/2000/svg" xmlns:xlink="http://www.w3.org/1999/xlink" x="0px" y="0px"
	 viewBox="0 0 16 16" style="enable-background:new 0 0 16 16;" xml:space="preserve">
<style type="text/css">
	.st0{fill-rule:evenodd;clip-rule:evenodd;fill:#979797;}
</style>
<title>icons/dark/normal 2</title>
<g>
	<g id="编组" transform="translate(2.100000, 3.000000)">
		<path id="矩形备份-5" class="st0" d="M0.5,0.2C0.2,0.3,0.1,0.6,0.2,0.8c0,0,0,0,0,0L3,8.5c0.1,0.3,0.4,0.4,0.7,0.3
			C3.9,8.7,4,8.4,3.9,8.2c0,0,0,0,0,0L1.1,0.5C1,0.2,0.7,0.1,0.5,0.2z"/>
		<path class="st0" d="M11.3,0.2c0.3,0.1,0.4,0.4,0.3,0.7c0,0,0,0,0,0L8.8,8.5C8.7,8.8,8.4,8.9,8.1,8.8C7.9,8.7,7.7,8.4,7.8,8.2
			c0,0,0,0,0,0l2.8-7.7C10.7,0.2,11,0.1,11.3,0.2z"/>
		<path id="矩形备份-7" class="st0" d="M6.1,1.3C6.3,1.4,6.5,1.7,6.4,2c0,0,0,0,0,0L4,8.5C3.9,8.8,3.6,8.9,3.3,8.8
			C3.1,8.7,2.9,8.5,3,8.2c0,0,0,0,0,0l2.4-6.6C5.5,1.4,5.8,1.2,6.1,1.3z"/>
		<path id="矩形备份-8" class="st0" d="M5.7,1.3C5.5,1.4,5.3,1.7,5.4,2c0,0,0,0,0,0l2.4,6.6c0.1,0.3,0.4,0.4,0.7,0.3
			c0.3-0.1,0.4-0.4,0.3-0.7c0,0,0,0,0,0L6.4,1.6C6.3,1.4,6,1.2,5.7,1.3z"/>
	</g>
</g>
</svg>
