<?xml version="1.0" encoding="utf-8"?>
<!-- Generator: Adobe Illustrator 24.0.1, SVG Export Plug-In . SVG Version: 6.00 Build 0)  -->
<svg version="1.1" id="图层_1" xmlns="http://www.w3.org/2000/svg" xmlns:xlink="http://www.w3.org/1999/xlink" x="0px" y="0px"
	 viewBox="0 0 16 16" style="enable-background:new 0 0 16 16;" xml:space="preserve">
<style type="text/css">
	.st0{fill:#BDBDBD;}
</style>
<title>icons/light/disable/ascendinsight/pin_line</title>
<g id="icons_x2F_light_x2F_disable_x2F_ascendinsight_x2F_pin_x5F_line">
	<path id="路径" class="st0" d="M11.5,1C12.3,1,13,1.7,13,2.5S12.3,4,11.5,4L11,4v2.9l0.2,0.1c1.4,0.4,1.9,0.5,2.1,0.6l0,0
		c0.4,0.3,0.7,0.8,0.6,1.3c-0.1,0.8-0.8,1.1-1.4,1.1l-3,0l0,3.8c0,0.6-0.5,1.1-1.1,1.2l-0.1,0H7.7c-0.7,0-1.2-0.5-1.2-1.2l0-3.8h-3
		c-0.2,0-0.4,0-0.6-0.1L2.7,9.9C2.3,9.6,2,9.2,2,8.7c0-0.5,0.3-0.9,0.7-1.2C2.9,7.4,3.3,7.2,4.6,7L5,6.9L5,4H4.5
		C3.7,4,3.1,3.4,3,2.6l0-0.1C3,1.7,3.7,1,4.5,1H11.5z M11.5,2h-7C4.2,2,4,2.2,4,2.5S4.2,3,4.5,3h1C5.7,3,5.9,3.2,6,3.4l0,0.1l0,3.8
		c0,0.3-0.2,0.5-0.5,0.5l0,0C4.1,8.1,3.3,8.3,3.2,8.3C3.1,8.4,3,8.5,3,8.7C3,9,3.2,9,3.5,9H7c0.3,0,0.5,0.2,0.5,0.5l0,4.3
		c0,0.1,0.1,0.2,0.2,0.2h0.6c0.1,0,0.2-0.1,0.2-0.1l0-0.1l0-4.3c0-0.2,0.2-0.4,0.4-0.5L9,9h3.5c0.2,0,0.4-0.1,0.4-0.2
		c0-0.2,0-0.3-0.2-0.4c0,0-0.1,0-0.2-0.1l-0.2-0.1c-0.4-0.1-1-0.3-1.9-0.5c-0.3,0-0.5-0.2-0.5-0.5l0-3.8c0-0.2,0.2-0.4,0.4-0.5
		l0.1,0h1C11.8,3,12,2.8,12,2.5S11.8,2,11.5,2z"/>
</g>
</svg>
