<?xml version="1.0" encoding="utf-8"?>
<!-- Generator: Adobe Illustrator 24.0.1, SVG Export Plug-In . SVG Version: 6.00 Build 0)  -->
<svg version="1.1" id="图层_1" xmlns="http://www.w3.org/2000/svg" xmlns:xlink="http://www.w3.org/1999/xlink" x="0px" y="0px"
	 viewBox="0 0 16 16" style="enable-background:new 0 0 16 16;" xml:space="preserve">
<style type="text/css">
	.st0{fill:#BDBDBD;}
</style>
<title>icons/light/disable/ascendinsight/pin</title>
<g id="icons_x2F_light_x2F_disable_x2F_ascendinsight_x2F_pin">
	<path id="路径" class="st0" d="M12.5,1h-9C3.2,1,3,1.2,3,1.5v1C3,2.8,3.2,3,3.5,3H5l0,5c0,0-0.2,0-0.5,0L2.2,9.1
		C2.1,9.2,2,9.3,2,9.5C2,9.8,2.2,10,2.5,10H7l0,4.5C7,14.8,7.2,15,7.5,15h1C8.8,15,9,14.8,9,14.5L9,10h4.5c0.2,0,0.3-0.1,0.4-0.2
		c0.2-0.2,0.1-0.5-0.1-0.7L11.5,8H11l0-5h1.5C12.8,3,13,2.8,13,2.5v-1C13,1.2,12.8,1,12.5,1z"/>
</g>
</svg>
