<?xml version="1.0" encoding="utf-8"?>
<!-- Generator: Adobe Illustrator 23.0.0, SVG Export Plug-In . SVG Version: 6.00 Build 0)  -->
<svg version="1.1" width="22px" height="22px" id="图层_1" xmlns="http://www.w3.org/2000/svg" xmlns:xlink="http://www.w3.org/1999/xlink" x="0px" y="0px"
	 viewBox="0 0 16 16" style="enable-background:new 0 0 16 16;" xml:space="preserve">
<style type="text/css">
	.st0{fill:#6F7072;}
	.st1{fill-rule:evenodd;clip-rule:evenodd;fill:#6F7072;}
</style>
<g>
	<g id="编组">
		<path id="矩形" class="st0" d="M8,12.5C8,12.8,7.8,13,7.5,13h-6C1.2,13,1,12.8,1,12.5v-9C1,3.2,1.2,3,1.5,3h6C7.8,3,8,3.2,8,3.5
			V12.5z M7,12V4H2v8H7z"/>
		<path id="矩形备份" class="st1" d="M3.2,5h2.6C5.9,5,6,5.1,6,5.2v0.6C6,5.9,5.9,6,5.8,6H3.2C3.1,6,3,5.9,3,5.8V5.2
			C3,5.1,3.1,5,3.2,5z"/>
		<path id="矩形备份-4" class="st1" d="M7.2,1h0.6C7.9,1,8,1.1,8,1.2v13.6C8,14.9,7.9,15,7.8,15H7.2C7.1,15,7,14.9,7,14.8V1.2
			C7,1.1,7.1,1,7.2,1z"/>
		<path id="矩形备份-2" class="st1" d="M3.2,7h1.6C4.9,7,5,7.1,5,7.2v0.6C5,7.9,4.9,8,4.8,8H3.2C3.1,8,3,7.9,3,7.8V7.2
			C3,7.1,3.1,7,3.2,7z"/>
		<path id="矩形备份-3" class="st1" d="M3.2,9h2.6C5.9,9,6,9.1,6,9.2v0.6C6,9.9,5.9,10,5.8,10H3.2C3.1,10,3,9.9,3,9.8V9.2
			C3,9.1,3.1,9,3.2,9z"/>
		<rect x="9" y="3" class="st1" width="3" height="1"/>
		<path id="矩形备份-9" class="st1" d="M13,3h1.5C14.8,3,15,3.2,15,3.5V4l0,0h-2V3z"/>
		<path id="矩形备份-10" class="st1" d="M13,12h2v0.5c0,0.3-0.2,0.5-0.5,0.5H13l0,0V12z"/>
		<rect id="矩形备份-6" x="9" y="12" class="st1" width="3" height="1"/>
		<rect id="矩形备份-7" x="14" y="6" class="st1" width="1" height="3"/>
		<rect id="矩形备份-12" x="14" y="10" class="st1" width="1" height="1"/>
		<rect id="矩形备份-11" x="14" y="11" class="st1" width="1" height="1"/>
		<rect id="矩形备份-8" x="14" y="4" class="st1" width="1" height="1"/>
	</g>
</g>
</svg>
