<svg viewBox="0 0 8 8" xmlns="http://www.w3.org/2000/svg" xmlns:xlink="http://www.w3.org/1999/xlink" width="8.000000"
     height="8.000000" fill="none" customFrame="#000000">
    <path id="形状结合"
          d="M3.76267 0C1.64304 0.238564 0 1.93201 0 3.98562C0 6.2027 1.91503 8 4.27734 8C5.87317 8 7.26489 7.17979 8 5.96404C7.83127 5.98304 7.65952 5.99281 7.48534 5.99281C5.12303 5.99281 3.208 4.19551 3.208 1.97843C3.208 1.25908 3.4096 0.583916 3.76267 0Z"
          fill="rgb(87,99,114)" fill-rule="evenodd"/>
    <path id="形状结合"
          d="M0 3.98562C0 1.93201 1.64304 0.238564 3.76267 0C3.4096 0.583916 3.208 1.25908 3.208 1.97843C3.208 4.19551 5.12303 5.99281 7.48534 5.99281C7.65952 5.99281 7.83127 5.98304 8 5.96404C7.26489 7.17979 5.87317 8 4.27734 8C1.91503 8 0 6.2027 0 3.98562ZM2.21982 1.63933Q2.1395 1.69906 2.06322 1.76356L2.06319 1.76358L2.06298 1.76376L2.06296 1.76378Q1.93082 1.87554 1.8108 2.00163Q1.52032 2.3068 1.33032 2.66523L1.33031 2.66524Q1.26622 2.78615 1.21356 2.91313Q1.10697 3.17014 1.05358 3.43776L1.05358 3.43776L1.05356 3.43787Q1 3.70641 1 3.98562Q1 4.27874 1.0588 4.55956Q1.12071 4.85527 1.24783 5.13733Q1.31243 5.28067 1.39147 5.41556Q1.60942 5.78747 1.93714 6.09505Q2.09157 6.23998 2.26196 6.36277L2.26259 6.36323L2.2626 6.36323Q2.59215 6.60058 2.98136 6.75508Q3.19129 6.83842 3.40841 6.8934L3.40849 6.89342Q3.82942 7 4.27734 7Q4.83494 7 5.3415 6.83922L5.34152 6.83921Q5.52656 6.78048 5.7048 6.70029Q5.57738 6.65678 5.45145 6.60679Q4.88571 6.38221 4.39666 6.04606L4.39664 6.04604Q4.06938 5.8211 3.77647 5.54619Q3.30354 5.10234 2.96668 4.57206Q2.77828 4.27549 2.63244 3.95188Q2.41702 3.47387 2.31093 2.97272L2.31093 2.97271Q2.208 2.48646 2.208 1.97843Q2.208 1.80797 2.21982 1.63933Z"
          fill="rgb(151,151,151)" fill-opacity="0" fill-rule="evenodd"/>
</svg>
