<svg viewBox="0 0 15 15" xmlns="http://www.w3.org/2000/svg" xmlns:xlink="http://www.w3.org/1999/xlink" width="15.000000" height="15.000000" fill="none" customFrame="#000000">
	<g id="eye-close-outlined-light">
		<rect id="矩形" width="15.000000" height="15.000000" x="0.000000" y="0.000000" opacity="0" fill="rgb(78,88,101)" />
		<path id="形状" d="M12.8658 2.25879L12.2448 1.6377C12.1993 1.59229 12.1246 1.59229 12.0792 1.6377L10.3683 3.34717C9.51282 2.93262 8.55774 2.72461 7.50012 2.72461C4.68469 2.72461 2.58704 4.19678 1.19836 7.12354L1.19836 7.125C1.08557 7.36231 1.08557 7.64062 1.19836 7.8794C1.73157 9.00293 2.37024 9.91113 3.11291 10.6055L1.63782 12.0776C1.59241 12.123 1.59241 12.1978 1.63782 12.2432L2.25891 12.8643C2.30432 12.9097 2.37903 12.9097 2.42444 12.8643L12.8658 2.42285C12.9113 2.37891 12.9113 2.3042 12.8658 2.25879ZM8.54602 5.16943C8.21057 5.01123 7.83704 4.92188 7.44153 4.92188C6.0177 4.92188 4.8634 6.07617 4.8634 7.5C4.8634 7.89551 4.95276 8.26904 5.11096 8.60449L3.85706 9.8584C3.21692 9.26953 2.66321 8.48584 2.18567 7.50146C3.40735 4.97754 5.13733 3.7793 7.50012 3.7793C8.25159 3.7793 8.94006 3.90088 9.56848 4.14697L8.54602 5.16943ZM13.8004 7.12207L13.8033 7.125C13.9147 7.36377 13.9147 7.63916 13.8019 7.87646C12.4132 10.8032 10.3156 12.2754 7.50012 12.2754C6.4425 12.2754 5.48743 12.0674 4.63049 11.6543L5.43176 10.853C6.06018 11.0991 6.74866 11.2207 7.50012 11.2207C9.86438 11.2207 11.5944 10.0225 12.8146 7.49854C12.337 6.51416 11.7833 5.73047 11.1432 5.1416L11.8859 4.39746C12.6285 5.09033 13.2672 5.99854 13.8004 7.12207ZM5.8009 7.5C5.8009 7.62744 5.81555 7.75195 5.84338 7.87207L7.8136 5.90185C7.69495 5.87402 7.56897 5.85937 7.44153 5.85937C6.53479 5.85937 5.8009 6.59326 5.8009 7.5ZM7.16614 9.11719C7.25549 9.1333 7.34778 9.14062 7.44153 9.14062C8.34827 9.14062 9.08215 8.40674 9.08362 7.49854C9.08362 7.40479 9.07483 7.3125 9.06018 7.22314L9.80872 6.47461C9.94495 6.78809 10.0197 7.13525 10.0197 7.49854C10.0197 8.92236 8.86536 10.0767 7.44153 10.0767C7.07825 10.0767 6.73108 10.002 6.4176 9.86572L7.16614 9.11719Z" fill="rgb(78,88,101)" fill-rule="evenodd" />
	</g>
</svg>
