<?xml version="1.0" encoding="UTF-8"?>
<svg width="16px" height="16px" viewBox="0 0 16 16" version="1.1" xmlns="http://www.w3.org/2000/svg" xmlns:xlink="http://www.w3.org/1999/xlink">
    <g stroke="none" stroke-width="1" fill="none" fill-rule="evenodd">
        <g transform="translate(1.000000, 0.055556)" fill="currentColor">
            <rect x="0" y="10.9444444" width="4" height="4" rx="0.5"></rect>
            <path d="M9.50226525,1 C9.74772514,1 9.95187362,1.17687516 9.99420958,1.41012437 L10.0022653,1.5 L10.0022653,10.3888889 C10.0022653,10.6650313 9.77840763,10.8888889 9.50226525,10.8888889 C9.25680536,10.8888889 9.05265688,10.7120137 9.01032092,10.4787645 L9.00226525,10.3888889 L9.00226525,1.5 C9.00226525,1.22385763 9.22612288,1 9.50226525,1 Z" id="直线" fill-rule="nonzero"></path>
            <path d="M9.50226525,1 C9.74772514,1 9.95187362,1.17687516 9.99420958,1.41012437 L10.0022653,1.5 L10.0022653,10.3888889 C10.0022653,10.6650313 9.77840763,10.8888889 9.50226525,10.8888889 C9.25680536,10.8888889 9.05265688,10.7120137 9.01032092,10.4787645 L9.00226525,10.3888889 L9.00226525,1.5 C9.00226525,1.22385763 9.22612288,1 9.50226525,1 Z" id="直线" fill-rule="nonzero" transform="translate(9.502265, 5.944444) rotate(60.000000) translate(-9.502265, -5.944444) "></path>
            <path d="M13.101267,3.28920952 C13.3404134,3.15113833 13.6462086,3.23307591 13.7842797,3.47222222 C13.9070097,3.68479672 13.8559056,3.95003207 13.6750738,4.10332069 L13.601267,4.15523492 L5.90326346,8.59967937 C5.66411715,8.73775056 5.35832194,8.65581298 5.22025076,8.41666667 C5.09752081,8.20409217 5.14862495,7.93885682 5.32945671,7.7855682 L5.40326346,7.73365396 L13.101267,3.28920952 Z" id="直线" fill-rule="nonzero" transform="translate(9.502265, 5.944444) rotate(60.000000) translate(-9.502265, -5.944444) "></path>
        </g>
    </g>
</svg>